<?xml version="1.0" standalone="no"?>
<!DOCTYPE svg PUBLIC "-//W3C//DTD SVG 20010904//EN"
 "http://www.w3.org/TR/2001/REC-SVG-20010904/DTD/svg10.dtd">
<svg version="1.0" xmlns="http://www.w3.org/2000/svg"
 width="1280.000000pt" height="1280.000000pt" viewBox="0 0 2200.000000 1280.000000"
 preserveAspectRatio="xMidYMid meet">
<metadata>
Created by potrace 1.15, written by Peter Selinger 2001-2017
</metadata>
<g transform="translate(900.000000,1280.000000) scale(0.100000,-0.100000)"
fill="#000000" stroke="none">
<path d="M5985 12070 c-1011 -88 -1885 -440 -2645 -1069 -155 -127 -493 -467
-621 -622 -505 -614 -841 -1375 -948 -2149 -61 -444 -50 -973 30 -1420 175
-980 718 -1905 1478 -2516 607 -488 1296 -764 2051 -823 123 -10 503 -6 584 5
l49 7 -7 -26 c-22 -89 -275 -598 -320 -645 -10 -10 -46 9 -187 97 -726 454
-1370 733 -1925 836 -509 94 -1010 33 -1421 -174 -283 -142 -548 -395 -666
-635 -99 -201 -132 -362 -124 -604 6 -195 32 -307 111 -467 197 -398 669 -747
1185 -875 220 -55 318 -65 631 -64 303 0 455 13 725 59 742 128 1453 467 2069
984 53 44 98 81 101 81 2 0 80 -56 172 -123 1143 -840 1774 -1127 2481 -1127
415 0 815 110 1157 320 620 379 1203 1233 1349 1977 67 341 61 634 -18 864
-44 130 -86 198 -177 291 -90 92 -165 131 -281 150 -167 25 -317 -28 -448
-160 -169 -170 -239 -374 -212 -616 31 -282 156 -449 445 -591 71 -36 138 -72
148 -81 36 -33 54 -103 53 -209 -2 -168 -47 -307 -147 -457 -168 -252 -523
-494 -912 -622 -320 -105 -611 -143 -1030 -133 -795 18 -1414 204 -2298 692
l-68 37 19 22 c228 255 470 594 644 901 107 189 134 242 223 439 l72 160 199
86 c754 327 1213 645 1809 1251 738 752 1218 1414 1611 2223 156 321 338 814
428 1156 171 651 229 1414 150 1960 -34 238 -102 459 -201 653 -155 303 -378
495 -668 573 -99 27 -402 27 -525 1 -324 -69 -622 -235 -932 -519 -64 -59
-102 -87 -110 -82 -7 4 -56 42 -108 85 -328 264 -680 481 -1015 624 -298 127
-644 216 -1020 260 -161 20 -774 29 -940 15z m750 -291 c599 -46 1151 -234
1659 -566 132 -87 324 -229 408 -302 l47 -42 -101 -122 c-720 -875 -1061
-1633 -1612 -3577 -52 -184 -151 -524 -219 -755 -69 -231 -171 -575 -227 -765
-192 -649 -352 -1137 -532 -1622 l-92 -247 -56 -8 c-30 -4 -203 -8 -385 -8
-262 0 -356 4 -455 18 -481 68 -896 213 -1315 459 -415 244 -785 579 -1053
954 -359 503 -578 1076 -654 1709 -20 168 -17 711 5 895 70 574 204 1020 461
1526 362 717 876 1302 1516 1729 664 442 1363 685 2100 728 107 7 396 4 505
-4z m3780 -384 c208 -44 353 -187 434 -431 135 -403 141 -1135 16 -1886 -115
-689 -340 -1369 -670 -2028 -348 -695 -733 -1229 -1279 -1776 -357 -357 -605
-571 -841 -726 -161 -106 -725 -384 -725 -358 0 5 23 85 50 177 161 534 325
1181 510 2003 222 988 438 1812 665 2535 123 391 152 477 235 695 117 309 331
790 351 790 20 0 274 -380 397 -595 44 -77 124 -229 178 -337 54 -109 103
-198 109 -198 5 0 65 27 132 59 l122 60 -70 148 c-107 224 -283 568 -337 658
-57 97 -190 277 -302 410 -45 53 -79 102 -77 108 8 21 139 190 218 283 160
187 310 311 445 367 129 54 301 71 439 42z m-6985 -7930 c351 -55 693 -192
1210 -485 324 -184 730 -432 723 -444 -39 -69 -189 -274 -269 -370 -218 -260
-471 -472 -761 -635 -691 -389 -1617 -413 -2208 -56 -253 153 -450 351 -536
541 -59 129 -74 204 -74 374 0 185 13 247 85 395 174 359 584 617 1099 690
133 19 586 13 731 -10z"/>
</g>
<g transform="translate(0.000000,1280.000000) scale(0.100000,-0.100000)"
fill="#000000" stroke="none">
<path d="M4885 12439 c-550 -47 -1038 -232 -1435 -543 -518 -406 -826 -953
-891 -1585 -15 -147 -6 -529 16 -671 95 -611 358 -1114 785 -1498 308 -276
689 -522 1245 -802 329 -166 514 -249 955 -434 879 -367 1474 -666 1950 -981
481 -318 746 -601 940 -1000 141 -291 217 -604 242 -994 49 -788 -204 -1460
-762 -2021 -714 -719 -1620 -1024 -2708 -914 -537 54 -1019 223 -1457 509
-450 293 -867 742 -1074 1153 -23 45 -41 86 -41 91 0 14 123 194 199 291 217
279 495 551 770 754 495 365 608 459 757 625 163 182 259 344 330 561 21 63
39 116 40 118 4 6 86 -49 169 -112 106 -80 255 -230 338 -341 81 -108 187
-317 221 -437 71 -250 74 -546 6 -742 -56 -162 -156 -310 -319 -470 -56 -54
-101 -105 -101 -113 0 -24 59 -132 77 -141 30 -16 477 108 589 163 221 107
445 335 591 603 202 366 215 786 37 1162 -130 274 -329 493 -641 703 -244 165
-592 308 -870 357 -82 15 -77 8 -93 130 -47 360 -206 704 -427 924 -318 316
-713 391 -1110 210 -247 -112 -507 -386 -650 -684 -26 -55 -50 -100 -53 -100
-3 0 -31 52 -62 114 -93 188 -177 306 -312 442 -167 167 -270 234 -463 300
-106 37 -111 37 -268 38 -140 1 -170 -2 -240 -22 -456 -133 -784 -572 -890
-1192 -43 -255 -46 -566 -6 -755 70 -331 202 -567 466 -830 152 -153 265 -244
580 -467 135 -96 160 -118 159 -138 -1 -14 -12 -81 -25 -150 -22 -113 -24
-152 -24 -400 0 -304 12 -405 76 -635 187 -674 705 -1245 1474 -1625 283 -140
510 -221 835 -299 387 -94 803 -141 1250 -141 1172 -1 2151 324 2982 989 153
122 429 388 561 541 506 584 798 1267 893 2085 22 189 25 689 6 875 -133 1257
-744 2036 -2157 2750 -388 196 -488 239 -1640 695 -804 318 -1438 652 -1865
981 -157 121 -409 374 -487 490 -173 255 -229 457 -204 733 31 337 148 606
380 868 232 263 507 413 810 443 167 17 297 -8 538 -102 140 -55 531 -250 748
-374 508 -289 867 -437 1260 -520 164 -35 453 -44 634 -20 693 92 1500 489
2384 1173 100 78 147 121 147 134 0 25 -118 227 -139 238 -9 5 -40 12 -69 16
l-52 7 -118 -94 c-623 -501 -1166 -776 -1614 -817 -293 -28 -639 82 -1365 433
-544 262 -893 388 -1258 452 -110 19 -401 26 -550 13z m-3248 -5775 c207 -42
349 -121 513 -284 129 -127 190 -213 276 -387 52 -104 58 -113 84 -113 27 0
33 8 84 113 94 193 198 326 346 446 197 159 413 231 654 218 132 -7 221 -29
331 -81 270 -128 475 -398 550 -724 8 -35 15 -65 15 -68 0 -2 -66 -1 -147 2
-348 15 -762 -50 -1089 -171 -681 -253 -1324 -836 -1620 -1471 -44 -93 -45
-95 -67 -81 -12 8 -83 52 -157 98 -280 173 -431 284 -565 415 -299 293 -403
629 -336 1089 35 241 98 418 208 583 156 235 349 364 638 425 49 11 213 6 282
-9z m2565 -1363 c63 -11 159 -34 213 -51 l97 -32 -6 -44 c-13 -97 -76 -256
-139 -349 -153 -227 -317 -366 -777 -660 -300 -192 -560 -407 -778 -645 -116
-126 -234 -276 -277 -353 -24 -41 -24 -41 -33 -17 -37 98 -72 343 -79 556 -7
203 5 345 42 508 122 541 560 975 1090 1081 197 39 438 41 647 6z"/>
</g>
</svg>
