<?xml version="1.0" encoding="utf-8"?>
<!-- Svg Vector Icons : http://www.onlinewebfonts.com/icon -->
<!DOCTYPE svg PUBLIC "-//W3C//DTD SVG 1.1//EN" "http://www.w3.org/Graphics/SVG/1.1/DTD/svg11.dtd">
<svg version="1.1" xmlns="http://www.w3.org/2000/svg" xmlns:xlink="http://www.w3.org/1999/xlink" x="0px" y="0px" viewBox="0 0 1000 1000" enable-background="new 0 0 1000 1000" xml:space="preserve">
<metadata> Svg Vector Icons : http://www.onlinewebfonts.com/icon </metadata>
<g><path d="M190.8,439.1h0.9h512.2c21.9,0,39.6,17,40.7,38.1h32.9c36.1,0,69,15,92.4,38.4c24,24,39,56.6,39,93c0,35.5-15,68.7-39,92.7c-23.4,23.4-56.3,38.4-92.4,38.4h-51.7c-13.3,34.1-34.1,65-59.5,90.7h-0.6h0.6c-48.5,48.5-115.8,78.8-189.4,78.8h-59.8c-73.4,0-140.1-30.3-188.6-78.8c-48.5-48.5-78.8-115.2-78.8-188.8V480.1C149.8,457,167.7,439.1,190.8,439.1L190.8,439.1z M418.3,383.6L418.3,383.6c5.5,12.7-0.6,27.1-13.3,31.8c-11.8,5.5-26.6-0.6-31.5-12.7c-6.4-15.6-11.3-31.8-15-48.5c-3.5-16.7-5.2-33.5-5.2-50.8c0-16.7,1.7-34.1,5.2-50.5c3.2-16.4,8.7-32.9,15-48.5c4.9-12.4,19.6-18.2,31.5-13c12.7,5.2,18.8,19.4,13.3,31.8c-5.2,12.1-9,25.4-12.2,39.3c-2.6,13-3.8,26.8-3.8,41c0,14.5,1.2,28.3,3.8,41.3C408.8,357.9,412.8,371.2,418.3,383.6L418.3,383.6z M336,383.6L336,383.6c-5.2-12.4-9.2-25.7-12.1-39c-2.6-13-3.8-26.8-3.8-41.3c0-14.1,1.2-28,3.8-41c2.9-13.9,6.9-27.1,12.1-39.3c6.7-15.6,11.6-31.5,15-48c3.5-17,4.9-34.1,4.9-51.4c0-16.4-1.4-34.1-4.9-50.5c-3.5-16.4-8.4-32.9-15-48.2c-5.2-12.4-19.6-18.5-31.8-13c-12.1,5.2-18.2,19.6-12.7,32.1c5.2,12.7,9,25.4,12.2,38.7c2.3,13,3.8,26.9,3.8,41c0,14.4-1.4,28.3-3.8,41.3c-3.2,13.6-6.9,26.6-12.2,39.3c-6.3,15.6-11.8,32.1-15,48.5c-3.8,16.5-5.2,33.8-5.2,50.5c0,17.3,1.4,34.1,5.2,50.8c3.2,16.8,8.7,32.9,15,48.5c5.2,12.1,19.1,18.2,31.5,12.7C335.1,410.8,341.5,396.4,336,383.6L336,383.6z M744.6,525.7L744.6,525.7v115.8c0,16.5-1.7,33.2-4.3,49.1h37.3c22.5,0,43-9,57.7-23.9c15.3-15,24.5-35.2,24.5-58c0-22.5-9.2-43.3-24.5-58.3c-14.7-14.7-35.2-24.5-57.7-24.5L744.6,525.7L744.6,525.7z M115.4,990L115.4,990c-13.3,0-24.2-10.4-24.2-24.2c0-13.6,11-24.3,24.2-24.3h663.6c13.6,0,24.8,10.7,24.8,24.3c0,13.8-11.3,24.2-24.8,24.2H115.4L115.4,990z M663.4,520.5L663.4,520.5H231.2v121c0,51.1,21.1,97.6,54.9,131.4c33.8,33.8,80.6,54.6,131.1,54.6h59.8c51.1,0,97.6-20.8,131.7-54.6v0.3c33.5-34.1,54.9-80.6,54.9-131.7L663.4,520.5L663.4,520.5z"/></g>
</svg>